<?xml version="1.0" standalone="no"?>
<!DOCTYPE svg PUBLIC "-//W3C//DTD SVG 20010904//EN"
 "http://www.w3.org/TR/2001/REC-SVG-20010904/DTD/svg10.dtd">
<svg version="1.0" xmlns="http://www.w3.org/2000/svg"
 width="612.000000pt" height="408.000000pt" viewBox="0 0 612.000000 408.000000"
 preserveAspectRatio="xMidYMid meet">

<g transform="translate(0.000000,408.000000) scale(0.100000,-0.100000)"
fill="#000000" stroke="none">
<path d="M987 2754 c-100 -99 -240 -236 -312 -305 -71 -68 -172 -165 -223
-214 l-93 -90 238 -61 c210 -53 238 -62 237 -80 -1 -10 -17 -80 -37 -154 -54
-203 -118 -441 -124 -459 -3 -9 16 5 43 30 27 25 123 111 214 190 91 79 226
198 300 264 74 66 171 152 215 189 44 38 81 73 83 77 2 4 -23 15 -55 24 -32 9
-101 29 -153 45 -52 16 -121 35 -152 44 -32 9 -82 23 -112 31 l-54 16 25 87
c14 48 33 116 42 152 39 142 84 297 97 339 8 25 12 47 9 49 -3 3 -87 -75 -188
-174z"/>
<path d="M1940 2070 l0 -410 75 0 75 0 0 41 0 41 39 -35 c73 -66 189 -73 288
-17 96 55 143 147 143 279 0 67 -4 86 -31 139 -52 105 -142 162 -253 162 -55
0 -127 -28 -163 -62 l-23 -21 -1 129 c-1 71 -1 137 0 147 2 15 -7 17 -73 17
l-76 0 0 -410z m389 50 c48 -24 91 -103 91 -165 0 -98 -87 -182 -178 -172 -51
6 -109 47 -134 98 -32 61 -17 159 30 213 42 47 128 59 191 26z"/>
<path d="M4480 2328 l0 -152 -27 27 c-100 95 -276 86 -373 -19 -63 -69 -84
-123 -85 -224 0 -72 4 -94 26 -140 81 -170 269 -224 414 -118 l40 29 3 -36 3
-35 75 0 74 0 0 410 0 410 -75 0 -75 0 0 -152z m-96 -208 c108 -53 134 -201
50 -285 -81 -81 -214 -64 -264 34 -45 89 -13 204 70 248 53 28 91 29 144 3z"/>
<path d="M4750 2070 l0 -410 77 0 76 0 -6 298 c-4 163 -7 348 -7 410 l0 112
-70 0 -70 0 0 -410z"/>
<path d="M2833 2254 c-52 -19 -126 -83 -158 -137 -47 -82 -49 -210 -5 -302 29
-60 96 -118 164 -144 205 -76 419 71 419 289 0 116 -62 219 -165 275 -43 24
-67 29 -133 32 -54 2 -94 -2 -122 -13z m177 -136 c77 -40 111 -117 89 -203
-14 -55 -71 -111 -124 -121 -155 -29 -256 167 -148 287 55 60 113 72 183 37z"/>
<path d="M3575 2258 c-16 -6 -42 -19 -57 -29 -34 -24 -36 -24 -30 6 4 25 4 25
-72 25 l-76 0 0 -300 0 -300 75 0 75 0 0 195 c0 216 6 242 60 270 41 21 108
19 148 -5 55 -34 62 -66 62 -275 l0 -185 70 0 70 0 0 215 c0 232 -1 238 -58
314 -50 67 -179 100 -267 69z"/>
<path d="M4973 2248 c2 -7 55 -140 117 -295 83 -208 111 -289 106 -307 -10
-42 -71 -95 -116 -102 l-40 -7 0 -68 0 -69 43 0 c58 0 137 41 186 96 29 33 52
78 85 167 25 67 77 205 116 307 39 102 77 201 84 220 8 19 17 43 21 53 6 15
-1 17 -73 17 l-80 0 -68 -205 c-37 -113 -71 -202 -74 -198 -4 5 -37 96 -74
203 l-66 195 -86 3 c-67 2 -85 0 -81 -10z"/>
</g>
</svg>
